<?xml version="1.0" encoding="UTF-8" standalone="no"?>
<!--
  Licensed to the Apache Software Foundation (ASF) under one or more
  contributor license agreements.  See the NOTICE file distributed with
  this work for additional information regarding copyright ownership.
  The ASF licenses this file to You under the Apache License, Version 2.0
  (the "License"); you may not use this file except in compliance with
  the License.  You may obtain a copy of the License at

       http://www.apache.org/licenses/LICENSE-2.0

  Unless required by applicable law or agreed to in writing, software
  distributed under the License is distributed on an "AS IS" BASIS,
  WITHOUT WARRANTIES OR CONDITIONS OF ANY KIND, either express or implied.
  See the License for the specific language governing permissions and
  limitations under the License.
-->
<!-- $Id$ -->
<svg xmlns:svg="http://www.w3.org/2000/svg" xmlns="http://www.w3.org/2000/svg" xmlns:xlink="http://www.w3.org/1999/xlink" width="230.40317" height="117.14757" viewBox="0 0 229.536 118.8" overflow="visible" enable-background="new 0 0 229.536 118.8" xml:space="preserve" id="svg1872" version="1.0">
  <defs id="defs9804">
    <linearGradient id="linearGradient18476">
      <stop style="stop-color:black;stop-opacity:1;" offset="0" id="stop18478"/>
      <stop style="stop-color:white;stop-opacity:1;" offset="1" id="stop18480"/>
    </linearGradient>
    <linearGradient xlink:href="#linearGradient18476" id="linearGradient27853" gradientUnits="userSpaceOnUse" gradientTransform="matrix(0.962159,0,0,0.962159,4.120483,2.436141)" spreadMethod="pad" x1="87.975304" y1="31.289745" x2="132.95105" y2="94.943863"/>
    <linearGradient xlink:href="#linearGradient18476" id="linearGradient27867" gradientUnits="userSpaceOnUse" gradientTransform="matrix(0.962159,0,0,0.962159,4.120483,2.436141)" spreadMethod="pad" x1="87.975304" y1="31.289745" x2="132.95105" y2="94.943863"/>
    <linearGradient xlink:href="#linearGradient18476" id="linearGradient27872" gradientUnits="userSpaceOnUse" gradientTransform="matrix(0.962159,0,0,0.962159,4.120483,2.436141)" spreadMethod="pad" x1="87.975304" y1="31.289745" x2="132.95105" y2="94.943863"/>
    <linearGradient xlink:href="#linearGradient18476" id="linearGradient28722" gradientUnits="userSpaceOnUse" gradientTransform="matrix(0.962159,0,0,0.962159,4.120483,2.436141)" spreadMethod="pad" x1="87.975304" y1="31.289745" x2="132.95105" y2="94.943863"/>
  </defs>
  <g id="g27882" transform="translate(0.637569,-0.391949)">
    <g id="g27875">
      <path style="font-size:128.6723938px;font-style:normal;font-variant:normal;font-weight:normal;font-stretch:normal;text-align:start;line-height:125%;writing-mode:lr-tb;text-anchor:start;fill:#ccc;fill-opacity:1;stroke:none;stroke-width:1px;stroke-linecap:butt;stroke-linejoin:miter;stroke-opacity:1;font-family:ZapfHumnst Dm BT" d="M 13.498802,67.639282 L 13.498802,81.273027 C 13.498778,87.513997 13.561606,93.116183 13.687287,98.079602 C 13.812919,103.04305 14.001404,107.38867 14.252742,111.11648 C 13.247465,110.90705 12.137499,110.74998 10.922841,110.64527 C 9.70814,110.54055 8.3468612,110.4882 6.8390009,110.48819 C 5.331105,110.4882 3.9802975,110.54055 2.7865744,110.64527 C 1.5928238,110.74998 0.45144388,110.90705 -0.63756889,111.11648 C -0.093067656,104.83365 0.315316,98.058672 0.5875833,90.791517 C 0.85982754,83.524403 0.99595542,75.681342 0.99596736,67.262313 C 0.99595542,57.838118 0.87029891,49.586674 0.61899745,42.507955 C 0.36767288,35.429374 -0.051182153,29.020892 -0.63756889,23.28249 C 3.6766276,23.366349 7.896592,23.439649 12.022337,23.50239 C 16.148036,23.565305 20.200459,23.59672 24.179616,23.596632 C 28.20059,23.59672 32.106413,23.565305 35.897098,23.50239 C 39.687689,23.439649 43.363142,23.345406 46.923467,23.219662 C 46.797753,23.973689 46.703511,24.706685 46.64074,25.418653 C 46.577854,26.130792 46.54644,26.863789 46.546497,27.617644 C 46.54644,28.287896 46.588325,29.020892 46.672154,29.816635 C 46.755867,30.612541 46.839638,31.408366 46.923467,32.204111 C 43.363142,31.492137 39.813345,30.958097 36.274068,30.601989 C 32.734695,30.246043 29.226784,30.06803 25.750324,30.067949 L 13.624459,30.067949 C 13.582549,33.251328 13.551135,36.298498 13.530217,39.209469 C 13.509249,42.120583 13.498778,45.06304 13.498802,48.036847 L 13.498802,61.293622 L 26.504264,61.293622 C 29.226784,61.293672 32.064527,61.19943 35.017501,61.010895 C 37.970383,60.82246 41.101325,60.539733 44.410335,60.162713 C 44.284623,61.042359 44.211323,61.764884 44.190435,62.33029 C 44.169438,62.895793 44.158966,63.450776 44.159021,63.99524 C 44.158966,64.832997 44.221794,66.194276 44.347506,68.079081 C 44.347451,68.372322 44.347451,68.602692 44.347506,68.770192 C 40.158901,68.393265 36.556747,68.110538 33.541036,67.92201 C 30.525235,67.733568 28.05399,67.639326 26.127294,67.639282 L 13.498802,67.639282 z M 105.16532,27.240674 C 94.526347,27.240758 86.285374,30.664898 80.442375,37.513104 C 74.599319,44.361458 71.677805,54.04748 71.677825,66.571201 C 71.677805,79.723293 74.546962,89.775814 80.285304,96.728793 C 86.02359,103.6818 94.31692,107.1583 105.16532,107.15829 C 115.88795,107.1583 124.1394,103.71322 129.91967,96.823036 C 135.6998,89.932885 138.5899,80.07932 138.58998,67.262313 C 138.5899,54.403507 135.6998,44.518528 129.91967,37.607347 C 124.1394,30.696312 115.88795,27.240758 105.16532,27.240674 L 105.16532,27.240674 z M 105.29097,112.81284 C 90.421568,112.81284 78.704098,108.73948 70.138531,100.59273 C 61.572928,92.446015 57.290135,81.335885 57.29014,67.262313 C 57.290135,53.105056 61.562456,41.953041 70.107117,33.806234 C 78.651741,25.659581 90.337797,21.586215 105.16532,21.586126 C 120.28593,21.586215 132.04529,25.586281 140.44342,33.586334 C 148.84137,41.586543 153.04039,52.811858 153.0405,67.262313 C 153.04039,81.545313 148.84137,92.707799 140.44342,100.74981 C 132.04529,108.79183 120.32782,112.81284 105.29097,112.81284 L 105.29097,112.81284 z M 182.00436,66.194231 C 182.46507,66.236162 182.98864,66.267576 183.57506,66.288474 C 184.16143,66.309461 185.02009,66.319933 186.15102,66.319888 C 194.73752,66.319933 201.22978,64.62357 205.6278,61.230794 C 210.02573,57.838118 212.22472,52.811858 212.22478,46.151998 C 212.22472,40.49752 210.41317,36.099542 206.79013,32.958051 C 203.16698,29.816717 198.08836,28.24601 191.55426,28.245927 C 190.63274,28.24601 189.40759,28.277424 187.8788,28.34017 C 186.34995,28.403081 184.60123,28.518266 182.63264,28.685726 C 182.42319,32.036648 182.26612,35.209475 182.16143,38.204216 C 182.05669,41.199102 182.00433,43.84836 182.00436,46.151998 L 182.00436,66.194231 z M 168.49627,111.05365 C 168.957,102.13204 169.30255,93.315139 169.53293,84.602928 C 169.76329,75.89077 169.87848,67.262356 169.87849,58.717661 C 169.87848,51.429636 169.76329,44.874555 169.53293,39.052398 C 169.30255,33.230385 168.957,27.910926 168.49627,23.094005 C 169.92036,23.261635 171.39683,23.387292 172.92566,23.470975 C 174.45447,23.554834 176.0147,23.59672 177.60637,23.596632 C 180.20325,23.59672 183.69022,23.512949 188.06729,23.345319 C 192.44429,23.177864 195.57523,23.094093 197.46012,23.094005 C 206.75866,23.094093 213.83731,25.031298 218.69609,28.905625 C 223.55475,32.780116 225.98411,38.403245 225.98418,45.775028 C 225.98411,53.691453 222.916,59.953336 216.77983,64.560695 C 210.64354,69.168147 202.23503,71.471849 191.55426,71.47181 C 189.20864,71.471849 187.34473,71.461378 185.96254,71.440396 C 184.58029,71.419493 183.2609,71.409021 182.00436,71.408981 L 182.00436,82.152624 C 182.00433,86.760058 182.05669,91.461706 182.16143,96.257581 C 182.26612,101.05349 182.42319,106.00645 182.63264,111.11648 C 181.66925,110.90705 180.61164,110.74998 179.45981,110.64527 C 178.30794,110.54055 177.01996,110.4882 175.59587,110.48819 C 174.08797,110.4882 172.76858,110.54055 171.63768,110.64527 C 170.50676,110.74998 169.45962,110.88611 168.49627,111.05365 L 168.49627,111.05365 z " id="text5793"/>
      <path id="path24337" d="M 108.94675,24.4046 C 95.477521,23.633605 82.145019,32.201989 78.2324,45.294939 C 73.996274,59.131226 74.283255,74.828242 80.300952,88.09682 C 87.538501,103.91185 108.20535,107.67157 123.17731,101.73841 C 138.19116,95.663332 142.90813,78.030181 142.36294,63.229437 C 142.57717,48.569214 136.78576,31.419725 121.60121,26.388907 C 117.54888,24.957106 113.2309,24.404364 108.94675,24.4046 z " style="font-size:128.6723938px;font-style:normal;font-variant:normal;font-weight:normal;font-stretch:normal;text-align:start;line-height:125%;writing-mode:lr-tb;text-anchor:start;fill:#ccc;fill-opacity:1;stroke:none;stroke-width:1px;stroke-linecap:butt;stroke-linejoin:miter;stroke-opacity:1;font-family:ZapfHumnst Dm BT"/>
      <path style="font-size:128.6723938px;font-style:normal;font-variant:normal;font-weight:normal;font-stretch:normal;text-align:start;line-height:125%;writing-mode:lr-tb;text-anchor:start;fill:url(#linearGradient28722);fill-opacity:1;stroke:none;stroke-width:1px;stroke-linecap:butt;stroke-linejoin:miter;stroke-opacity:1;font-family:ZapfHumnst Dm BT" d="M 108.94451,25.917231 C 95.98498,25.175412 83.157001,33.419554 79.392441,46.017045 C 75.316617,59.329745 75.592738,74.43276 81.382716,87.199235 C 88.346385,102.41579 108.23117,106.03324 122.63656,100.3246 C 137.08227,94.479417 141.62073,77.513533 141.09618,63.272873 C 141.3023,49.167417 135.73005,32.666893 121.12011,27.826448 C 117.22112,26.44883 113.06654,25.917004 108.94451,25.917231 z " id="path17587"/>
      <path style="font-size:128.6723938px;font-style:normal;font-variant:normal;font-weight:normal;font-stretch:normal;text-align:start;line-height:125%;writing-mode:lr-tb;text-anchor:start;fill:black;fill-opacity:1;stroke:none;stroke-width:1px;stroke-linecap:butt;stroke-linejoin:miter;stroke-opacity:1;font-family:ZapfHumnst Dm BT" d="M 17.280235,64.803208 L 17.280235,78.436952 C 17.280211,84.677922 17.343039,90.280108 17.46872,95.243527 C 17.594352,100.20697 17.782837,104.55259 18.034175,108.2804 C 17.028898,108.07098 15.918932,107.9139 14.704274,107.80919 C 13.489573,107.70448 12.128294,107.65212 10.620433,107.65212 C 9.1125376,107.65212 7.7617301,107.70448 6.568007,107.80919 C 5.3742565,107.9139 4.2328765,108.07098 3.1438637,108.2804 C 3.688365,101.99758 4.0967486,95.222598 4.3690159,87.955442 C 4.6412602,80.688328 4.777388,72.845268 4.7774,64.426238 C 4.777388,55.002043 4.6517315,46.750599 4.4004301,39.671881 C 4.1491055,32.593299 3.7302505,26.184817 3.1438637,20.446416 C 7.4580602,20.530274 11.678025,20.603574 15.80377,20.666315 C 19.929469,20.729231 23.981891,20.760645 27.961049,20.760557 C 31.982022,20.760645 35.887845,20.729231 39.67853,20.666315 C 43.469121,20.603574 47.144574,20.509332 50.7049,20.383587 C 50.579186,21.137614 50.484943,21.870611 50.422172,22.582578 C 50.359287,23.294718 50.327873,24.027714 50.32793,24.781569 C 50.327873,25.451821 50.369758,26.184817 50.453587,26.980561 C 50.5373,27.776466 50.621071,28.572291 50.7049,29.368037 C 47.144574,28.656062 43.594778,28.122022 40.0555,27.765915 C 36.516128,27.409968 33.008217,27.231955 29.531757,27.231874 L 17.405892,27.231874 C 17.363982,30.415253 17.332568,33.462423 17.311649,36.373394 C 17.290682,39.284508 17.280211,42.226965 17.280235,45.200773 L 17.280235,58.457548 L 30.285697,58.457548 C 33.008217,58.457597 35.84596,58.363355 38.798934,58.17482 C 41.751816,57.986385 44.882757,57.703658 48.191767,57.326638 C 48.066055,58.206284 47.992756,58.928809 47.971868,59.494215 C 47.95087,60.059718 47.940399,60.614701 47.940454,61.159165 C 47.940399,61.996922 48.003227,63.358201 48.128939,65.243006 C 48.128884,65.536247 48.128884,65.766618 48.128939,65.934117 C 43.940333,65.55719 40.33818,65.274463 37.322468,65.085935 C 34.306668,64.897493 31.835423,64.803251 29.908727,64.803208 L 17.280235,64.803208 z M 108.94675,24.4046 C 98.30778,24.404683 90.066807,27.828823 84.223807,34.677029 C 78.380752,41.525383 75.459238,51.211405 75.459257,63.735126 C 75.459238,76.887219 78.328395,86.939739 84.066737,93.892718 C 89.805023,100.84573 98.098352,104.32222 108.94675,104.32222 C 119.66939,104.32222 127.92083,100.87714 133.70111,93.986961 C 139.48123,87.09681 142.37133,77.243245 142.37142,64.426238 C 142.37133,51.567432 139.48123,41.682453 133.70111,34.771272 C 127.92083,27.860237 119.66939,24.404683 108.94675,24.4046 L 108.94675,24.4046 z M 109.07241,109.97677 C 94.203,109.97677 82.485531,105.9034 73.919963,97.75666 C 65.35436,89.60994 61.071568,78.499811 61.071573,64.426238 C 61.071568,50.268982 65.343889,39.116966 73.888549,30.970159 C 82.433174,22.823506 94.119229,18.750141 108.94675,18.750051 C 124.06736,18.750141 135.82672,22.750206 144.22485,30.75026 C 152.62281,38.750468 156.82183,49.975783 156.82193,64.426238 C 156.82183,78.709238 152.62281,89.871725 144.22485,97.913731 C 135.82672,105.95576 124.10925,109.97677 109.07241,109.97677 L 109.07241,109.97677 z M 185.78579,63.358156 C 186.2465,63.400087 186.77007,63.431501 187.3565,63.452399 C 187.94287,63.473386 188.80152,63.483858 189.93246,63.483813 C 198.51896,63.483858 205.01121,61.787495 209.40924,58.394719 C 213.80717,55.002043 216.00615,49.975783 216.00621,43.315923 C 216.00615,37.661445 214.19461,33.263467 210.57156,30.121976 C 206.94841,26.980642 201.8698,25.409936 195.33569,25.409853 C 194.41418,25.409936 193.18903,25.44135 191.66024,25.504095 C 190.13138,25.567006 188.38266,25.682191 186.41407,25.849651 C 186.20462,29.200574 186.04755,32.3734 185.94286,35.368141 C 185.83812,38.363027 185.78576,41.012285 185.78579,43.315923 L 185.78579,63.358156 z M 172.2777,108.21757 C 172.73843,99.295963 173.08398,90.479064 173.31437,81.766853 C 173.54473,73.054695 173.65991,64.426282 173.65992,55.881587 C 173.65991,48.593561 173.54473,42.03848 173.31437,36.216323 C 173.08398,30.39431 172.73843,25.074851 172.2777,20.257931 C 173.7018,20.425561 175.17826,20.551217 176.7071,20.634901 C 178.2359,20.718759 179.79614,20.760645 181.38781,20.760557 C 183.98469,20.760645 187.47166,20.676874 191.84872,20.509244 C 196.22573,20.34179 199.35667,20.258019 201.24155,20.257931 C 210.5401,20.258019 217.61875,22.195223 222.47753,26.06955 C 227.33618,29.944041 229.76554,35.56717 229.76561,42.938953 C 229.76554,50.855379 226.69743,57.117261 220.56126,61.72462 C 214.42498,66.332072 206.01646,68.635775 195.33569,68.635735 C 192.99007,68.635775 191.12617,68.625303 189.74397,68.604321 C 188.36172,68.583418 187.04233,68.572946 185.78579,68.572907 L 185.78579,79.316549 C 185.78576,83.923983 185.83812,88.625631 185.94286,93.421506 C 186.04755,98.217411 186.20462,103.17037 186.41407,108.2804 C 185.45068,108.07098 184.39307,107.9139 183.24124,107.80919 C 182.08937,107.70448 180.80139,107.65212 179.3773,107.65212 C 177.8694,107.65212 176.55001,107.70448 175.41912,107.80919 C 174.28819,107.9139 173.24106,108.05003 172.2777,108.21757 L 172.2777,108.21757 z " id="text17827"/>
      <path style="font-size:25.16046524px;font-style:normal;font-variant:normal;font-weight:normal;font-stretch:normal;text-align:start;line-height:125%;writing-mode:lr-tb;text-anchor:start;fill:black;fill-opacity:1;stroke:none;stroke-width:1px;stroke-linecap:butt;stroke-linejoin:miter;stroke-opacity:1;font-family:ZapfHumnst Ult BT" d="M 111.84179,76.313049 L 111.84179,79.326074 L 102.04531,84.347783 L 111.84179,89.355733 L 111.84179,92.368758 L 98.918773,85.696076 L 98.918773,82.958214 L 111.84179,76.313049 z M 116.4932,79.160976 C 116.67604,76.950523 117.18433,75.139041 118.01807,73.726525 C 118.85181,72.314045 119.8172,71.607797 120.91423,71.607776 C 121.1702,71.607797 121.41886,71.630727 121.66022,71.676566 C 121.90156,71.722448 122.14656,71.791238 122.39523,71.882938 C 122.28552,72.37825 122.17398,72.923988 122.06063,73.520153 C 121.94727,74.116356 121.82111,74.840949 121.68216,75.693933 L 121.57245,75.693933 C 121.2726,75.354585 120.98737,75.104645 120.71677,74.944117 C 120.44616,74.783624 120.16825,74.703368 119.88303,74.70335 C 119.50272,74.703368 119.19372,74.820312 118.95604,75.054181 C 118.71834,75.288086 118.5995,75.593058 118.5995,75.969095 C 118.5995,76.143382 118.63423,76.363511 118.70372,76.629485 C 118.77319,76.89549 118.86645,77.156894 118.98346,77.413696 L 119.75138,79.13346 L 120.2231,79.13346 C 120.51565,79.133473 120.79538,79.124301 121.06233,79.105944 C 121.32927,79.087613 121.58708,79.060097 121.83574,79.023395 C 121.83574,79.050925 121.83208,79.101372 121.82477,79.174734 C 121.80282,79.514114 121.79185,79.752588 121.79186,79.890155 C 121.79185,80.009405 121.80282,80.234121 121.82477,80.564303 C 121.83208,80.646863 121.83574,80.701896 121.83574,80.7294 C 121.6529,80.72024 121.45909,80.715654 121.25432,80.715642 C 121.04953,80.715654 120.75698,80.715654 120.37669,80.715642 L 119.83914,80.715642 L 119.83914,87.099403 C 119.83914,87.741454 119.86108,88.532544 119.90497,89.472677 C 119.94884,90.412816 120.01466,91.501998 120.10243,92.740227 C 119.6563,92.694366 119.28514,92.659971 118.98895,92.637041 C 118.69275,92.614111 118.43494,92.602646 118.21554,92.602646 C 118.01076,92.602646 117.76575,92.611818 117.48053,92.630161 C 117.1953,92.648506 116.81499,92.685194 116.33962,92.740227 C 116.39813,92.033978 116.44201,91.330022 116.47126,90.628357 C 116.50051,89.926697 116.51514,89.153951 116.51514,88.310117 L 116.51514,87.099403 L 116.51514,80.715642 C 116.39081,80.69731 116.27197,80.685845 116.15861,80.681247 C 116.04525,80.676673 115.92274,80.67438 115.7911,80.674368 C 115.71065,80.67438 115.53878,80.688138 115.27549,80.715642 C 115.1146,80.724826 114.98661,80.729413 114.89154,80.7294 C 114.91348,80.555143 114.92993,80.396925 114.9409,80.254746 C 114.95188,80.112591 114.95736,79.991062 114.95736,79.890155 C 114.95736,79.80762 114.95188,79.690676 114.9409,79.539324 C 114.92993,79.387998 114.91713,79.216022 114.90251,79.023395 C 115.21699,79.069269 115.50588,79.103664 115.76916,79.126581 C 116.03244,79.149524 116.27379,79.160989 116.4932,79.160976 L 116.4932,79.160976 z M 122.29649,85.861174 C 122.29649,83.595682 122.81393,81.823181 123.84879,80.543666 C 124.88366,79.264175 126.32259,78.624424 128.16561,78.62441 C 130.02324,78.624424 131.46035,79.255003 132.47694,80.516149 C 133.49351,81.77732 134.0018,83.558993 134.00181,85.861174 C 134.0018,88.12668 133.48437,89.896888 132.44951,91.171803 C 131.41464,92.446721 129.97935,93.084179 128.14367,93.084179 C 126.29334,93.084179 124.85623,92.449014 123.83233,91.178681 C 122.80844,89.908353 122.29649,88.135852 122.29649,85.861174 L 122.29649,85.861174 z M 126.04834,85.861174 C 126.04834,88.007443 126.20923,89.516248 126.53103,90.387591 C 126.85282,91.258939 127.39768,91.694611 128.16561,91.69461 C 128.92621,91.694611 129.46741,91.261232 129.78922,90.39447 C 130.111,89.527712 130.2719,88.016615 130.2719,85.861174 C 130.2719,83.705746 130.111,82.190063 129.78922,81.31412 C 129.46741,80.438199 128.92621,80.000234 128.16561,80.00022 C 127.39768,80.000234 126.85282,80.438199 126.53103,81.31412 C 126.20923,82.190063 126.04834,83.705746 126.04834,85.861174 L 126.04834,85.861174 z " id="text5797"/>
    </g>
    <g transform="translate(32.4573,-46.63767)" id="Ink">
      <path clip-rule="evenodd" d="M 34.954346,162.01719 L 70.212346,164.17719 L 79.087346,155.53619 L 70.212346,138.97619 L 64.456346,138.49619 L 64.456346,137.77719 L 64.456346,137.05719 L 64.456346,136.57719 L 64.456346,135.85719 L 64.456346,135.13719 L 64.456346,134.41719 L 64.456346,133.69719 L 64.456346,132.97719 L 64.456346,132.73719 L 63.736346,132.49719 L 63.016346,132.25819 L 62.057346,132.01819 L 59.419346,131.77819 L 56.541346,131.53819 L 53.663346,131.53819 L 51.025346,131.77819 L 50.066346,132.01819 L 49.346346,132.25819 L 48.867346,132.73719 L 48.627346,132.97719 L 48.627346,138.49719 L 39.992346,142.33719 L 34.954346,162.01719 z " id="path2023" style="fill-rule:evenodd"/>
      <path stroke-miterlimit="10" d="M 63.016346,143.53719 L 69.972346,139.21819" id="path2025" style="fill:none;stroke:#ccc;stroke-width:0;stroke-linecap:square;stroke-miterlimit:10"/>
      <path stroke-miterlimit="10" d="M 69.972346,163.69719 L 62.777346,143.77719 L 40.471346,142.81719" id="path2027" style="fill:none;stroke:#ccc;stroke-width:0;stroke-linecap:square;stroke-miterlimit:10"/>
      <path stroke-miterlimit="10" d="M 64.456346,138.49719 L 64.456346,137.77719 L 64.456346,137.05719 L 64.456346,136.33619 L 64.456346,135.61619 L 64.456346,134.89619 L 64.456346,134.17719 L 64.456346,133.45719 L 64.456346,132.73719 L 63.976346,132.25819 L 62.057346,132.01819 L 59.419346,131.77819 L 56.541346,131.53819 L 53.663346,131.77819 L 51.025346,131.77819 L 50.066346,132.01819 L 49.346346,132.25819 L 48.867346,132.49719 L 48.627346,132.73719 L 48.627346,133.45719 L 48.627346,134.17719 L 48.627346,134.89719 L 48.627346,135.61719 L 48.627346,136.33719 L 48.627346,137.05819 L 48.627346,137.77819 L 48.627346,138.49819 L 48.867346,138.73819 L 49.346346,138.97819 L 50.066346,139.21819 L 51.265346,139.45719 L 53.663346,139.69719 L 56.541346,139.69719 L 59.659346,139.69719 L 62.057346,139.45719 L 63.016346,139.21819 L 63.975346,138.97819 L 64.455346,138.73819 L 64.455346,138.49719" id="path2029" style="fill:none;stroke:#ccc;stroke-width:0;stroke-linecap:square;stroke-miterlimit:10"/>
      <path clip-rule="evenodd" d="M 64.456346,132.97719 L 64.216346,133.21719 L 63.737346,133.45619 L 63.497346,133.45619 L 62.777346,133.69619 L 62.297346,133.93719 L 61.577346,133.93719 L 60.857346,134.17719 L 60.138346,134.17719 L 60.857346,134.41619 L 61.337346,134.41619 L 62.056346,134.65619 L 62.536346,134.65619 L 63.015346,134.89619 L 63.495346,135.13619 L 63.976346,135.37719 L 64.456346,135.61719 L 64.456346,132.97719 L 64.456346,132.97719 z " id="path2031" style="fill:#ccc;fill-rule:evenodd"/>
      <path stroke-miterlimit="10" d="M 64.456346,132.97719 L 64.216346,133.21719 L 63.737346,133.45619 L 63.497346,133.45619 L 62.777346,133.69619 L 62.297346,133.93719 L 61.577346,133.93719 L 60.857346,134.17719 L 60.138346,134.17719 L 60.857346,134.41619 L 61.337346,134.41619 L 62.056346,134.65619 L 62.536346,134.65619 L 63.015346,134.89619 L 63.495346,135.13619 L 63.976346,135.37719 L 64.456346,135.61719 L 64.456346,132.97719" id="path2033" style="fill:none;stroke:#ccc;stroke-width:0;stroke-linecap:square;stroke-miterlimit:10"/>
      <path clip-rule="evenodd" d="M 48.626346,138.73719 L 47.667346,139.21719 L 46.467346,139.69719 L 45.508346,140.17719 L 44.549346,140.65619 L 43.350346,141.13619 L 42.391346,141.61519 L 41.192346,142.09519 L 40.231346,142.57719 L 40.711346,142.57719 L 41.190346,142.57719 L 41.910346,142.57719 L 42.389346,142.57719 L 42.868346,142.57719 L 43.348346,142.57719 L 44.068346,142.81719 L 44.547346,142.81719 L 44.547346,142.33719 L 45.026346,141.61719 L 45.266346,141.13819 L 45.745346,140.65819 L 46.465346,140.17919 L 46.944346,139.69919 L 47.903346,139.22019 L 48.626346,138.73719 z " id="path2035" style="fill:#ccc;fill-rule:evenodd"/>
      <path clip-rule="evenodd" d="M 62.777346,142.81719 L 63.017346,142.81719 L 63.257346,142.81719 L 63.497346,143.05719 L 63.737346,143.29619 L 63.737346,143.53619 L 63.737346,143.77619 L 63.737346,144.01619 L 63.737346,144.25619 L 63.497346,144.49519 L 63.257346,144.49519 L 63.017346,144.73519 L 62.777346,144.73519 L 62.537346,144.49519 L 62.297346,144.49519 L 62.057346,144.25619 L 62.057346,144.01619 L 62.057346,143.77719 L 62.057346,143.53719 L 62.057346,143.29719 L 62.297346,143.05819 L 62.537346,142.81819 L 62.777346,142.81819 L 62.777346,142.81719 z " id="path2037" style="fill:#ccc;fill-rule:evenodd"/>
    </g>
    

  <g transform="translate(85,10) scale(0.15, 0.15) rotate(0)">
    <defs>
      <style>
        .cls-1 {
          fill: #7c297d;
        }
  
        .cls-2 {
          fill: #f79a23;
        }
  
        .cls-3 {
          fill: #dd552c;
        }
  
        .cls-4 {
          fill: #d22128;
        }
      </style>
    </defs>  
     <g>
      <path class="cls-3" d="M141.1077177,209.8881008c13.1869872-32.608129,27.9005344-65.1523006,43.6878912-93.9970469-23.5665852-17.5041056-46.1956909-55.2490163-55.4930639-71.9721694-3.3392448,3.7936783-5.5070609,8.1629723-6.4899838,11.7176522-8.7587851,31.6252061,22.4204029,69.8144518-2.6929393,55.86166-20.9241385-11.6267655-68.040478-37.0885068-86.0124818-11.7816095,20.1280383,25.862316,72.7733189,90.9304622,107.0005776,110.1715137Z"/>
      <path class="cls-2" d="M184.7956089,115.8910539c15.2975784-27.9493439,31.5999598-52.4281623,48.5015202-70.0635487,0,0-16.8578001,24.4013964-40.9360438,73.180626,14.5822664,4.0158458,56.1124399,12.2562401,113.9601427-2.686207,1.4222086-10.5125619-5.645074-22.0753701-40.8636711-25.9464703-22.9926525-2.5246306,27.5975787-54.9023003-9.0516423-79.6739759-1.1832102-.8011494-2.3462234-1.508046-3.4856733-2.1408868-1.2286536-.4409688-2.5263137-.8449097-3.9114944-1.2050903-42.8025874-11.1689658-48.7354693,61.409115-65.8154369,45.8068978-27.6009449-25.2126444-45.0225792-19.3218396-53.890765-9.2435142,9.297373,16.7231532,31.9264787,54.4680639,55.4930639,71.9721694Z"/>
      <path class="cls-4" d="M106.6818547,303.8380213c9.6626029-28.9457315,21.2860022-61.4663399,34.425863-93.9499204-34.2272587-19.2410514-86.8725393-84.3091977-107.0005776-110.1715137-3.5933909,5.0559936-6.0490149,12.1081284-6.8669953,21.7522173-4.3894911,51.802054,49.0518897,90.152876,38.3979485,97.1578844-14.0924881,9.2670774-42.1411341-22.2605096-53.19565-2.2284073,16.0229889,20.5841549,48.6614135,57.7770131,94.2394114,87.4397396Z"/>
      <path class="cls-3" d="M254.7564893,192.1180675c-27.0589909-9.6508213,28.2758628-35.5333343,46.2445004-62.9912168,2.2990969-3.5109196,4.6756159-8.0485224,5.3202382-12.8049265-57.8477027,14.942447-99.3778763,6.7020527-113.9601427,2.686207-12.4649429,25.2564046-26.8587035,57.0835812-41.8701571,95.4579665,15.6341958,6.6852219,79.4703224,31.3794754,169.6366631,31.50739,15.1595653-39.4852227-39.6905594-44.6994265-65.3711019-53.8554202Z"/>
      <path class="cls-4" d="M117.1371916,309.0488589c15.9001236,4.9550083,68.5841152,19.7560761,124.5366618,17.5276688,7.5166669-20.3518889-20.585838-22.3379316-22.8748364-38.6605101-1.7722907-12.6298854,73.9565291,10.6135471,98.3225807-35.3111668,1.2320197-2.3226602,2.1930625-4.5140395,3.0059935-6.6313631-90.1663407-.1279146-154.0024672-24.8221682-169.6366631-31.50739-10.9703615,28.0435968-22.2554604,59.5173251-33.3537365,94.5827612Z"/>
      <path class="cls-1" d="M117.1371916,309.0488589c-7.1447046,22.5701977-14.1934733,46.6821031-21.0352222,72.1640414-2.4270116,9.0348114-4.8254106,18.2379315-7.190148,27.6430221,53.1064464,17.531035,102.0085414.0403941,103.6663821-21.6377674.0134647-.1716749-.018514-.2995895-.0084154-.464532,1.2639984-22.9606739-33.150083-10.2331694-32.3354689-24.0378496.8179803-13.9056654,60.0811593-.0807882,78.4082944-29.8949926,1.4053777-2.2856322,2.3209771-4.3154353,3.0312398-6.244253-55.9525467,2.2284073-108.6365383-12.5726604-124.5366618-17.5276688Z"/>
      <path class="cls-1" d="M12.4424433,216.3982816c-.7742201,1.4036946-1.4727012,3.0261906-2.068514,4.9651069-10.2920775,33.4496725,62.4846076,78.3847312,52.5830064,88.180298-8.9254108,8.8261086-20.5572255-11.3440069-34.9004936-3.0127259-1.5720033.9155994-3.1675699,2.0701971-4.8052136,3.749918-16.2215932,16.6188018-.2541461,64.4958967,45.7698699,90.0518908-10.7397786,36.0618236-21.4324308,76.351562-31.8995493,118.4859638,3.7970444-1.3296388,8.3413795-2.6626438,9.4724141-6.244253,1.6982349-6.9814452,12.1939658-49.4625629,29.2352225-107.0948305,0,0,3.1103449-11.8051727,8.8042285-31.254927,5.2646964-17.9854685,12.7460184-42.5147795,22.0484407-70.3867014-45.577998-29.6627266-78.2164225-66.8555847-94.2394114-87.4397396Z"/>
    </g>
  </g>   

  </g>
</svg>
